<svg xmlns="http://www.w3.org/2000/svg" version="1.0" width="128.000000pt" height="128.000000pt" viewBox="0 0 128.000000 128.000000" preserveAspectRatio="xMidYMid meet">
<metadata fill="#ffffff">
Created by potrace 1.10, written by Peter Selinger 2001-2011
</metadata>
<g transform="translate(0.000000,128.000000) scale(0.050000,-0.050000)" fill="#ffffff" stroke="none">
<path d="M880 1290 l0 -410 75 0 75 0 0 410 0 410 -75 0 -75 0 0 -410z" fill="#ffffff"/>
<path d="M428 1453 c-176 -80 -220 -329 -85 -483 108 -123 309 -135 412 -25 l42 45 -48 56 -48 55 -40 -40 c-23 -23 -64 -41 -92 -41 -47 0 -41 12 90 164 78 89 139 172 135 183 -28 86 -250 138 -366 86z m172 -122 c0 -43 -170 -230 -181 -199 -20 58 3 126 56 168 45 36 125 55 125 31z" fill="#ffffff"/>
<path d="M1860 1444 c-97 -51 -166 -186 -153 -301 24 -234 281 -353 462 -215 299 228 22 689 -309 516z m227 -145 c109 -86 49 -279 -87 -279 -136 0 -196 193 -87 279 29 22 68 41 87 41 19 0 58 -19 87 -41z" fill="#ffffff"/>
<path d="M1196 1169 l111 -291 78 6 79 6 85 230 c48 127 96 255 108 285 l22 55 -89 0 -88 0 -58 -182 c-33 -100 -63 -175 -69 -165 -5 9 -34 91 -64 182 l-54 165 -86 0 -86 0 111 -291z" fill="#ffffff"/>
</g>
</svg>